<svg aria-hidden="true" style="position: absolute; width: 0; height: 0; overflow: hidden;" version="1.1" xmlns="http://www.w3.org/2000/svg" xmlns:xlink="http://www.w3.org/1999/xlink">
<defs>
<symbol id="icon-calendar" viewBox="0 0 32 32">
<path fill="#00ccbe" style="fill: var(--color1, #00ccbe)" d="M4.979 4.98c-2.929 3.050-4.449 6.658-4.49 11.020 0 4.287 1.52 7.943 4.49 11.020 0.331 0.223 0.605 0.477 0.816 0.816 2.925 2.413 6.301 3.673 10.204 3.673s7.286-1.26 10.204-3.673c0.218-0.339 0.492-0.593 0.816-0.816 2.977-3.077 4.49-6.734 4.49-11.020-0.028-4.362-1.541-7.971-4.49-11.020-3.077-2.977-6.734-4.49-11.020-4.49-4.273 0-7.923 1.513-11.020 4.49z"></path>
<path fill="#fff" style="fill: var(--color2, #fff)" d="M6.885 10.286l-1.906 14.618 19.319 2.525 1.905-14.618-19.319-2.525z"></path>
<path fill="#007e8a" style="fill: var(--color3, #007e8a)" d="M7.63 5.388l-0.814 5.102 19.388 2.449 0.816-5.013-19.39-2.538z"></path>
<path fill="#fff" style="fill: var(--color2, #fff)" d="M9.522 4.424l-0.452 3.373c-0.028 0.207 0.022 0.393 0.151 0.559s0.302 0.262 0.517 0.29c0.215 0.028 0.409-0.021 0.582-0.145 0.187-0.138 0.295-0.31 0.323-0.517l0.452-3.352c0.029-0.207-0.021-0.393-0.151-0.559-0.143-0.18-0.323-0.283-0.539-0.31s-0.409 0.027-0.582 0.166c-0.172 0.124-0.273 0.29-0.302 0.497zM20.312 5.276c-0.128-0.166-0.299-0.262-0.512-0.29s-0.405 0.027-0.576 0.166c-0.171 0.124-0.27 0.29-0.299 0.497l-0.469 3.373c-0.029 0.207 0.029 0.393 0.171 0.559 0.128 0.166 0.299 0.262 0.512 0.29s0.405-0.021 0.576-0.145c0.171-0.138 0.277-0.31 0.32-0.517l0.448-3.352c0.029-0.207-0.029-0.4-0.171-0.579zM23.693 5.56c-0.171 0.124-0.27 0.29-0.299 0.497l-0.448 3.373c-0.028 0.207 0.029 0.393 0.171 0.559 0.128 0.166 0.299 0.262 0.512 0.29s0.405-0.021 0.576-0.145c0.185-0.138 0.292-0.31 0.32-0.517l0.448-3.352c0.029-0.221-0.028-0.414-0.171-0.579-0.128-0.166-0.299-0.262-0.512-0.29s-0.412 0.027-0.597 0.166zM15.413 4.46c-0.129-0.166-0.301-0.262-0.515-0.29s-0.408 0.027-0.58 0.166c-0.186 0.124-0.287 0.29-0.301 0.497l-0.451 3.373c-0.043 0.207 0.007 0.393 0.15 0.559 0.129 0.166 0.301 0.262 0.515 0.29s0.415-0.021 0.601-0.145c0.172-0.138 0.272-0.31 0.301-0.517l0.451-3.352c0.029-0.207-0.028-0.4-0.172-0.579z"></path>
<path fill="#00ccbe" style="fill: var(--color1, #00ccbe)" d="M14.172 13.959l0.194-1.456-1.438-0.177-0.194 1.436 1.438 0.197z"></path>
<path fill="#00ccbe" style="fill: var(--color1, #00ccbe)" d="M15.591 14.19l1.456 0.177 0.177-1.436-1.436-0.197-0.197 1.456z"></path>
<path fill="#00ccbe" style="fill: var(--color1, #00ccbe)" d="M19.673 13.34l-1.436-0.197-0.197 1.436 1.456 0.197 0.177-1.436z"></path>
<path fill="#00ccbe" style="fill: var(--color1, #00ccbe)" d="M21.714 13.728l-1.458-0.177-0.175 1.436 1.438 0.197 0.194-1.456z"></path>
<path fill="#00ccbe" style="fill: var(--color1, #00ccbe)" d="M24.163 13.728l-1.438-0.177-0.194 1.436 1.438 0.197 0.194-1.456z"></path>
<path fill="#00ccbe" style="fill: var(--color1, #00ccbe)" d="M9.469 14.562l-1.456-0.194-0.177 1.438 1.436 0.194 0.197-1.438z"></path>
<path fill="#00ccbe" style="fill: var(--color1, #00ccbe)" d="M10.463 14.775l-0.177 1.456 1.436 0.177 0.197-1.456-1.456-0.177z"></path>
<path fill="#00ccbe" style="fill: var(--color1, #00ccbe)" d="M14.367 15.361l-1.438-0.177-0.194 1.436 1.438 0.197 0.194-1.456z"></path>
<path fill="#00ccbe" style="fill: var(--color1, #00ccbe)" d="M16.817 15.786l-1.436-0.194-0.197 1.438 1.456 0.194 0.177-1.438z"></path>
<path fill="#00ccbe" style="fill: var(--color1, #00ccbe)" d="M19.265 15.769l-1.436-0.177-0.197 1.436 1.456 0.197 0.177-1.456z"></path>
<path fill="#00ccbe" style="fill: var(--color1, #00ccbe)" d="M21.714 16.194l-1.458-0.194-0.175 1.438 1.438 0.194 0.194-1.438z"></path>
<path fill="#00ccbe" style="fill: var(--color1, #00ccbe)" d="M24.163 16.602l-1.438-0.194-0.194 1.438 1.438 0.194 0.194-1.438z"></path>
<path fill="#00ccbe" style="fill: var(--color1, #00ccbe)" d="M9.061 17.419l-1.456-0.194-0.177 1.438 1.436 0.194 0.197-1.438z"></path>
<path fill="#00ccbe" style="fill: var(--color1, #00ccbe)" d="M10.055 17.633l-0.177 1.456 1.436 0.177 0.197-1.456-1.456-0.177z"></path>
<path fill="#00ccbe" style="fill: var(--color1, #00ccbe)" d="M13.959 17.827l-1.438-0.194-0.194 1.438 1.438 0.194 0.194-1.438z"></path>
<path fill="#00ccbe" style="fill: var(--color1, #00ccbe)" d="M16.408 18.235l-1.436-0.194-0.197 1.438 1.456 0.194 0.177-1.438z"></path>
<path fill="#00ccbe" style="fill: var(--color1, #00ccbe)" d="M18.857 18.626l-1.436-0.177-0.197 1.456 1.456 0.177 0.177-1.456z"></path>
<path fill="#00ccbe" style="fill: var(--color1, #00ccbe)" d="M21.306 19.052l-1.458-0.194-0.175 1.438 1.438 0.194 0.194-1.438z"></path>
<path fill="#00ccbe" style="fill: var(--color1, #00ccbe)" d="M23.755 19.052l-1.438-0.194-0.194 1.438 1.438 0.194 0.194-1.438z"></path>
<path fill="#00ccbe" style="fill: var(--color1, #00ccbe)" d="M8.653 19.868l-1.456-0.194-0.177 1.438 1.436 0.194 0.197-1.438z"></path>
<path fill="#00ccbe" style="fill: var(--color1, #00ccbe)" d="M9.646 20.082l-0.177 1.456 1.436 0.177 0.197-1.456-1.456-0.177z"></path>
<path fill="#00ccbe" style="fill: var(--color1, #00ccbe)" d="M13.551 20.684l-1.438-0.194-0.194 1.438 1.438 0.194 0.194-1.438z"></path>
<path fill="#00ccbe" style="fill: var(--color1, #00ccbe)" d="M16 21.092l-1.436-0.194-0.197 1.438 1.456 0.194 0.177-1.438z"></path>
<path fill="#00ccbe" style="fill: var(--color1, #00ccbe)" d="M18.449 21.075l-1.436-0.177-0.197 1.456 1.456 0.177 0.177-1.456z"></path>
<path fill="#00ccbe" style="fill: var(--color1, #00ccbe)" d="M20.898 21.5l-1.438-0.194-0.194 1.438 1.438 0.194 0.194-1.438z"></path>
<path fill="#00ccbe" style="fill: var(--color1, #00ccbe)" d="M23.346 21.909l-1.438-0.194-0.194 1.438 1.438 0.194 0.194-1.438z"></path>
<path fill="#00ccbe" style="fill: var(--color1, #00ccbe)" d="M8.245 22.725l-1.456-0.194-0.177 1.438 1.436 0.194 0.197-1.438z"></path>
<path fill="#00ccbe" style="fill: var(--color1, #00ccbe)" d="M10.694 22.706l-1.456-0.175-0.177 1.438 1.436 0.194 0.197-1.458z"></path>
<path fill="#00ccbe" style="fill: var(--color1, #00ccbe)" d="M13.143 23.116l-1.438-0.177-0.194 1.436 1.438 0.197 0.194-1.456z"></path>
<path fill="#00ccbe" style="fill: var(--color1, #00ccbe)" d="M15.591 23.541l-1.438-0.194-0.194 1.438 1.438 0.194 0.194-1.438z"></path>
<path fill="#00ccbe" style="fill: var(--color1, #00ccbe)" d="M18.041 23.932l-1.436-0.177-0.197 1.436 1.456 0.197 0.177-1.456z"></path>
</symbol>
<symbol id="icon-chevron-right-icon" viewBox="0 0 21 32">
<path fill="#00ccbc" style="fill: var(--color4, #00ccbc)" d="M0.791 28.219l3.003 3.003 15.223-15.223-15.223-15.223-3.003 3.003 12.178 12.219-12.178 12.219z"></path>
</symbol>
<symbol id="icon-clock-icon" viewBox="0 0 32 32">
<path fill="#bac3c3" style="fill: var(--color5, #bac3c3)" d="M17.466 16l3.177 5.655-2.513 1.431-3.596-6.214v-9.6h2.932v8.727zM16 1.443c2.63 0 5.073 0.663 7.331 1.99 2.211 1.28 3.956 3.025 5.236 5.236 1.327 2.257 1.99 4.701 1.99 7.331s-0.663 5.073-1.99 7.331c-1.28 2.211-3.025 3.956-5.236 5.236-2.257 1.327-4.701 1.99-7.331 1.99s-5.073-0.663-7.331-1.99c-2.211-1.28-3.956-3.025-5.236-5.236-1.327-2.257-1.99-4.701-1.99-7.331s0.663-5.073 1.99-7.331c1.28-2.211 3.025-3.956 5.236-5.236 2.257-1.327 4.701-1.99 7.331-1.99zM16 27.625c2.095 0 4.049-0.524 5.865-1.571 1.769-1.024 3.165-2.42 4.189-4.189 1.047-1.815 1.571-3.77 1.571-5.865s-0.524-4.049-1.571-5.865c-1.024-1.769-2.42-3.165-4.189-4.189-1.815-1.047-3.77-1.571-5.865-1.571s-4.049 0.524-5.865 1.571c-1.769 1.024-3.165 2.42-4.189 4.189-1.047 1.815-1.571 3.77-1.571 5.865s0.524 4.049 1.571 5.865c1.024 1.769 2.42 3.165 4.189 4.189 1.815 1.047 3.77 1.571 5.865 1.571z"></path>
</symbol>
<symbol id="icon-support-icon" viewBox="0 0 32 32">
<path fill="#bac3c3" style="fill: var(--color5, #bac3c3)" d="M16 1.443c2.63 0 5.073 0.663 7.331 1.99 2.211 1.28 3.956 3.025 5.236 5.236 1.327 2.257 1.99 4.701 1.99 7.331s-0.663 5.073-1.99 7.331c-1.28 2.211-3.025 3.956-5.236 5.236-2.257 1.327-4.701 1.99-7.331 1.99s-5.073-0.663-7.331-1.99c-2.211-1.28-3.956-3.025-5.236-5.236-1.327-2.257-1.99-4.701-1.99-7.331s0.663-5.073 1.99-7.331c1.28-2.211 3.025-3.956 5.236-5.236 2.257-1.327 4.701-1.99 7.331-1.99zM16 27.625c2.095 0 4.049-0.524 5.865-1.571 1.769-1.024 3.165-2.42 4.189-4.189 1.047-1.815 1.571-3.77 1.571-5.865s-0.524-4.049-1.571-5.865c-1.024-1.769-2.42-3.165-4.189-4.189-1.815-1.047-3.77-1.571-5.865-1.571s-4.049 0.524-5.865 1.571c-1.769 1.024-3.165 2.42-4.189 4.189-1.047 1.815-1.571 3.77-1.571 5.865s0.524 4.049 1.571 5.865c1.024 1.769 2.42 3.165 4.189 4.189 1.815 1.047 3.77 1.571 5.865 1.571zM20.364 11.636c0.396 0 0.733 0.14 1.012 0.419 0.303 0.279 0.454 0.628 0.454 1.047 0 0.396-0.151 0.733-0.454 1.012-0.279 0.279-0.617 0.419-1.012 0.419s-0.745-0.14-1.047-0.419c-0.279-0.279-0.419-0.617-0.419-1.012 0-0.419 0.14-0.768 0.419-1.047 0.303-0.279 0.652-0.419 1.047-0.419zM11.636 14.534c-0.396 0-0.745-0.14-1.047-0.419-0.279-0.279-0.419-0.617-0.419-1.012 0-0.419 0.14-0.768 0.419-1.047 0.303-0.279 0.652-0.419 1.047-0.419s0.733 0.14 1.012 0.419c0.303 0.279 0.454 0.628 0.454 1.047 0 0.396-0.151 0.733-0.454 1.012-0.279 0.279-0.617 0.419-1.012 0.419zM16 21.097c0.908 0 1.757-0.221 2.548-0.663 0.791-0.465 1.408-1.094 1.85-1.885l1.257 0.733c-0.582 1.001-1.385 1.804-2.409 2.409-1.001 0.582-2.083 0.873-3.247 0.873-1.164-0.023-2.257-0.326-3.281-0.908-1.001-0.582-1.792-1.373-2.374-2.374l1.257-0.733c0.442 0.791 1.059 1.42 1.85 1.885 0.791 0.442 1.641 0.663 2.548 0.663z"></path>
</symbol>
<symbol id="icon-question-icon" viewBox="0 0 32 32">
<path fill="#bac3c3" style="fill: var(--color5, #bac3c3)" d="M16 30.557c-2.63 0-5.073-0.663-7.331-1.99-2.211-1.28-3.956-3.025-5.236-5.236-1.327-2.257-1.99-4.701-1.99-7.331s0.663-5.073 1.99-7.331c1.28-2.211 3.025-3.956 5.236-5.236 2.257-1.327 4.701-1.99 7.331-1.99s5.073 0.663 7.331 1.99c2.211 1.28 3.956 3.025 5.236 5.236 1.327 2.257 1.99 4.701 1.99 7.331s-0.663 5.073-1.99 7.331c-1.28 2.211-3.025 3.956-5.236 5.236-2.257 1.327-4.701 1.99-7.331 1.99zM16 27.625c2.118 0 4.073-0.524 5.865-1.571 1.769-1.024 3.165-2.42 4.189-4.189 1.047-1.792 1.571-3.747 1.571-5.865s-0.524-4.073-1.571-5.865c-1.024-1.769-2.42-3.165-4.189-4.189-1.792-1.047-3.747-1.571-5.865-1.571s-4.073 0.524-5.865 1.571c-1.769 1.024-3.165 2.42-4.189 4.189-1.047 1.792-1.571 3.747-1.571 5.865s0.524 4.073 1.571 5.865c1.024 1.769 2.42 3.165 4.189 4.189 1.792 1.047 3.747 1.571 5.865 1.571zM15.162 21.271c0.698 0 1.222 0.151 1.571 0.454s0.524 0.733 0.524 1.292c0 0.559-0.175 0.989-0.524 1.292-0.349 0.279-0.873 0.419-1.571 0.419-1.373 0-2.060-0.57-2.060-1.711 0-1.164 0.687-1.745 2.060-1.745zM16.279 8.739c1.606 0 2.886 0.326 3.84 0.977 1.14 0.791 1.711 1.99 1.711 3.596 0 1.327-0.431 2.409-1.292 3.247-0.815 0.815-2.001 1.396-3.561 1.745v1.955h-3.491v-3.945c1.373-0.093 2.42-0.337 3.142-0.733 0.977-0.489 1.466-1.257 1.466-2.304 0-1.257-0.675-1.885-2.025-1.885-0.721 0-1.28 0.186-1.676 0.559-0.372 0.349-0.628 0.908-0.768 1.676l-3.456-0.489c0.186-1.373 0.803-2.444 1.85-3.212 1.047-0.791 2.467-1.187 4.259-1.187z"></path>
</symbol>
<symbol id="icon-reach-earning" viewBox="0 0 31 32">
<path fill="#00ccbe" style="fill: var(--color1, #00ccbe)" d="M25.909 6.012c-2.91-2.91-6.422-4.365-10.537-4.365s-7.627 1.455-10.537 4.365c-2.91 2.91-4.365 6.422-4.365 10.537s1.455 7.627 4.365 10.537c2.91 2.91 6.422 4.365 10.537 4.365s7.627-1.455 10.537-4.365c2.91-2.91 4.365-6.422 4.365-10.537s-1.455-7.627-4.365-10.537z"></path>
<path fill="#fa5058" style="fill: var(--color6, #fa5058)" d="M9.181 22.025c0.662-0.257 0.993-0.57 0.993-0.937 0-0.373-0.331-0.691-0.993-0.953-0.662-0.257-1.46-0.386-2.395-0.386s-1.733 0.129-2.395 0.386c-0.662 0.263-0.993 0.58-0.993 0.953 0 0.368 0.331 0.68 0.993 0.937s1.46 0.386 2.395 0.386 1.733-0.129 2.395-0.386z"></path>
<path fill="#fa5058" style="fill: var(--color6, #fa5058)" d="M10.174 21.048v-1.308h-6.782v1.308h6.782z"></path>
<path fill="#fabe00" style="fill: var(--color7, #fabe00)" d="M9.181 20.678c0.662-0.263 0.993-0.58 0.993-0.953 0-0.368-0.331-0.683-0.993-0.945-0.662-0.257-1.46-0.386-2.395-0.386s-1.736 0.129-2.403 0.386c-0.662 0.263-0.993 0.578-0.993 0.945 0 0.373 0.331 0.691 0.993 0.953 0.667 0.257 1.468 0.386 2.403 0.386s1.733-0.129 2.395-0.386z"></path>
<path fill="#fa5058" style="fill: var(--color6, #fa5058)" d="M9.181 20.237c0.662-0.257 0.993-0.57 0.993-0.937 0-0.373-0.331-0.688-0.993-0.945-0.662-0.263-1.46-0.394-2.395-0.394s-1.733 0.131-2.395 0.394c-0.662 0.257-0.993 0.572-0.993 0.945 0 0.368 0.331 0.68 0.993 0.937s1.46 0.386 2.395 0.386 1.733-0.129 2.395-0.386z"></path>
<path fill="#fa5058" style="fill: var(--color6, #fa5058)" d="M10.174 19.268v-1.308h-6.782v1.308h6.782z"></path>
<path fill="#fabe00" style="fill: var(--color7, #fabe00)" d="M9.181 18.89c0.662-0.263 0.993-0.58 0.993-0.953 0-0.368-0.331-0.68-0.993-0.937-0.662-0.263-1.46-0.394-2.395-0.394-0.94 0-1.741 0.131-2.403 0.394-0.662 0.257-0.993 0.57-0.993 0.937 0 0.373 0.331 0.691 0.993 0.953 0.662 0.268 1.463 0.402 2.403 0.402 0.935 0 1.733-0.134 2.395-0.402z"></path>
<path fill="#fa5058" style="fill: var(--color6, #fa5058)" d="M9.181 18.464c0.662-0.257 0.993-0.57 0.993-0.937 0-0.373-0.331-0.688-0.993-0.945-0.662-0.263-1.46-0.394-2.395-0.394s-1.733 0.131-2.395 0.394c-0.662 0.257-0.993 0.572-0.993 0.945 0 0.368 0.331 0.68 0.993 0.937 0.662 0.268 1.46 0.402 2.395 0.402s1.733-0.134 2.395-0.402z"></path>
<path fill="#fa5058" style="fill: var(--color6, #fa5058)" d="M10.174 17.495v-1.308h-6.782v1.308h6.782z"></path>
<path fill="#fabe00" style="fill: var(--color7, #fabe00)" d="M6.786 14.841c-0.94 0-1.741 0.129-2.403 0.386s-0.993 0.575-0.993 0.953c0 0.362 0.331 0.675 0.993 0.937s1.463 0.394 2.403 0.394c0.935 0 1.733-0.131 2.395-0.394s0.993-0.575 0.993-0.937c0-0.378-0.331-0.696-0.993-0.953s-1.46-0.386-2.395-0.386z"></path>
<path fill="#fa5058" style="fill: var(--color6, #fa5058)" d="M6.786 14.431c-0.935 0-1.733 0.129-2.395 0.386-0.662 0.268-0.993 0.586-0.993 0.953 0 0.373 0.331 0.688 0.993 0.945s1.46 0.386 2.395 0.386 1.733-0.129 2.395-0.386c0.662-0.257 0.993-0.572 0.993-0.945 0-0.368-0.331-0.685-0.993-0.953-0.662-0.257-1.46-0.386-2.395-0.386z"></path>
<path fill="#fa5058" style="fill: var(--color6, #fa5058)" d="M10.174 14.423h-6.782v1.308h6.782v-1.308z"></path>
<path fill="#fabe00" style="fill: var(--color7, #fabe00)" d="M3.391 14.415c0 0.368 0.331 0.685 0.993 0.953 0.667 0.257 1.468 0.386 2.403 0.386s1.733-0.129 2.395-0.386c0.662-0.268 0.993-0.586 0.993-0.953 0-0.373-0.331-0.691-0.993-0.953-0.662-0.257-1.46-0.386-2.395-0.386s-1.736 0.129-2.403 0.386c-0.662 0.263-0.993 0.58-0.993 0.953z"></path>
<path fill="#fa5058" style="fill: var(--color6, #fa5058)" d="M4.391 14.951c0.662 0.257 1.46 0.386 2.395 0.386s1.733-0.129 2.395-0.386c0.662-0.257 0.993-0.572 0.993-0.945 0-0.368-0.331-0.68-0.993-0.937-0.662-0.268-1.46-0.402-2.395-0.402s-1.733 0.134-2.395 0.402c-0.662 0.257-0.993 0.57-0.993 0.937 0 0.373 0.331 0.688 0.993 0.945z"></path>
<path fill="#fa5058" style="fill: var(--color6, #fa5058)" d="M3.391 12.667v1.308h6.783v-1.308h-6.782z"></path>
<path fill="#fabe00" style="fill: var(--color7, #fabe00)" d="M4.384 13.604c0.662 0.263 1.463 0.394 2.403 0.394 0.935 0 1.733-0.131 2.395-0.394 0.662-0.268 0.993-0.586 0.993-0.953 0-0.373-0.331-0.688-0.993-0.945-0.662-0.263-1.46-0.394-2.395-0.394-0.94 0-1.741 0.131-2.403 0.394-0.662 0.257-0.993 0.572-0.993 0.945 0 0.368 0.331 0.685 0.993 0.953z"></path>
<path fill="#fa5058" style="fill: var(--color6, #fa5058)" d="M4.391 13.179c0.662 0.263 1.46 0.394 2.395 0.394s1.733-0.131 2.395-0.394c0.662-0.257 0.993-0.572 0.993-0.945 0-0.368-0.331-0.68-0.993-0.937-0.662-0.268-1.46-0.402-2.395-0.402s-1.733 0.134-2.395 0.402c-0.662 0.257-0.993 0.57-0.993 0.937 0 0.373 0.331 0.688 0.993 0.945z"></path>
<path fill="#fa5058" style="fill: var(--color6, #fa5058)" d="M3.391 10.894v1.308h6.783v-1.308h-6.782z"></path>
<path fill="#fabe00" style="fill: var(--color7, #fabe00)" d="M4.384 11.824c0.662 0.268 1.463 0.402 2.403 0.402 0.935 0 1.733-0.134 2.395-0.402 0.662-0.263 0.993-0.575 0.993-0.937 0-0.378-0.331-0.696-0.993-0.953s-1.46-0.386-2.395-0.386c-0.94 0-1.741 0.129-2.403 0.386s-0.993 0.575-0.993 0.953c0 0.362 0.331 0.675 0.993 0.937z"></path>
<path fill="#007e8a" style="fill: var(--color3, #007e8a)" d="M27.756 21.931v-0.079c-0.026-0.809-0.853-1.502-2.481-2.080-1.591-0.562-3.498-0.856-5.719-0.882h-0.268c-0.021 0-0.039 0-0.055 0-2.221 0.026-4.13 0.32-5.727 0.882-1.628 0.578-2.455 1.271-2.481 2.080v0.079c0.026 0.809 0.853 1.502 2.481 2.080 1.597 0.562 3.506 0.856 5.727 0.882 0.016 0 0.034 0 0.055 0 0.068 0 0.139 0 0.213 0 0.016 0 0.034 0 0.055 0 2.221-0.026 4.128-0.32 5.719-0.882 1.628-0.578 2.455-1.271 2.481-2.080z"></path>
<path fill="#fff" style="fill: var(--color2, #fff)" d="M22.874 4.231v-2.584h-10.298v2.584c-0.011 0.628-0.236 1.167-0.677 1.617-0.086 0.089-0.177 0.172-0.274 0.25v0.008c-0.097 0.072-0.188 0.153-0.274 0.242-0.446 0.461-0.674 1.011-0.685 1.65v13.81c0.022 0.706 0.72 1.311 2.095 1.817 1.343 0.489 2.952 0.745 4.827 0.767 0.016 0 0.032 0 0.048 0 0.059 0 0.118 0 0.177 0 0.016 0 0.032 0 0.048 0 1.875-0.022 3.484-0.278 4.827-0.767 1.375-0.506 2.074-1.111 2.095-1.817v-13.81c-0.011-0.639-0.239-1.189-0.685-1.65-0.086-0.089-0.177-0.169-0.274-0.242v-0.008c-0.097-0.078-0.188-0.161-0.274-0.25-0.44-0.45-0.666-0.989-0.677-1.617z"></path>
<path fill="#f84f57" style="fill: var(--color8, #f84f57)" d="M23.164 1.819v-0.032c-0.011-0.467-0.536-0.869-1.575-1.205-1.045-0.336-2.305-0.504-3.781-0.504-1.481 0-2.747 0.168-3.797 0.504-1.029 0.336-1.549 0.738-1.56 1.205v0.032c0.010 0.467 0.53 0.867 1.56 1.197 0.058 0.021 0.118 0.039 0.181 0.055 1.014 0.305 2.219 0.457 3.616 0.457 1.392 0 2.594-0.152 3.608-0.457 0.058-0.016 0.116-0.034 0.173-0.055 1.040-0.331 1.565-0.73 1.575-1.197z"></path>
<path fill="#fabe00" style="fill: var(--color7, #fabe00)" d="M20.832 2.513c0.84-0.226 1.26-0.494 1.26-0.804s-0.42-0.578-1.26-0.803c-0.835-0.221-1.841-0.331-3.017-0.331-1.187 0-2.198 0.11-3.033 0.331-0.835 0.226-1.253 0.494-1.253 0.803s0.418 0.578 1.253 0.804c0.835 0.221 1.846 0.331 3.033 0.331 1.176 0 2.182-0.11 3.017-0.331z"></path>
<path fill="#450064" style="fill: var(--color9, #450064)" d="M20.217 2.032v-0.551h-4.892v0.551h4.892z"></path>
<path fill="#00ccbe" style="fill: var(--color1, #00ccbe)" d="M10.835 21.852v0.063c0.021 0.667 0.704 1.239 2.048 1.717 1.313 0.462 2.886 0.704 4.719 0.725 0.016 0 0.032 0 0.047 0 0.058 0 0.116 0 0.173 0 0.016 0 0.032 0 0.047 0 1.833-0.021 3.406-0.263 4.719-0.725 1.344-0.478 2.027-1.050 2.048-1.717v-0.063c-0.021-0.667-0.704-1.239-2.048-1.717-1.313-0.462-2.886-0.704-4.719-0.725h-0.221c-0.016 0-0.032 0-0.047 0-1.833 0.021-3.406 0.263-4.719 0.725-1.344 0.478-2.027 1.050-2.048 1.717z"></path>
<path fill="#fabe00" style="fill: var(--color7, #fabe00)" d="M17.531 12.832c-0.557 0.557-0.835 1.224-0.835 2.001s0.278 1.442 0.835 1.993c0.557 0.557 1.221 0.835 1.993 0.835 0.782 0 1.449-0.278 2.001-0.835 0.546-0.551 0.819-1.216 0.819-1.993s-0.273-1.444-0.819-2.001c-0.551-0.546-1.218-0.819-2.001-0.819-0.772 0-1.436 0.273-1.993 0.819z"></path>
<path fill="#fa5058" style="fill: var(--color6, #fa5058)" d="M11.474 20.237c0 0.336 0.302 0.622 0.906 0.859s1.331 0.354 2.182 0.354c0.856 0 1.586-0.118 2.19-0.354s0.906-0.523 0.906-0.859-0.302-0.622-0.906-0.859c-0.604-0.242-1.334-0.362-2.19-0.362-0.851 0-1.578 0.121-2.182 0.362-0.604 0.236-0.906 0.523-0.906 0.859z"></path>
<path fill="#fa5058" style="fill: var(--color6, #fa5058)" d="M11.465 19.016v1.197h6.192v-1.197h-6.192z"></path>
<path fill="#fabe00" style="fill: var(--color7, #fabe00)" d="M11.465 19c0 0.336 0.299 0.625 0.898 0.866 0.604 0.242 1.337 0.362 2.198 0.362 0.856 0 1.586-0.121 2.19-0.362s0.906-0.53 0.906-0.866c0-0.341-0.302-0.628-0.906-0.859-0.604-0.242-1.334-0.362-2.19-0.362-0.861 0-1.594 0.121-2.198 0.362-0.599 0.231-0.898 0.517-0.898 0.859z"></path>
<path fill="#fa5058" style="fill: var(--color6, #fa5058)" d="M23.258 22.057c0.604-0.236 0.906-0.523 0.906-0.859s-0.302-0.625-0.906-0.866c-0.604-0.236-1.334-0.354-2.19-0.354-0.851 0-1.578 0.118-2.182 0.354-0.604 0.242-0.906 0.53-0.906 0.866s0.302 0.622 0.906 0.859c0.604 0.236 1.331 0.355 2.182 0.355 0.856 0 1.586-0.118 2.19-0.355z"></path>
<path fill="#fa5058" style="fill: var(--color6, #fa5058)" d="M24.164 21.159v-1.19h-6.192v1.19h6.192z"></path>
<path fill="#fabe00" style="fill: var(--color7, #fabe00)" d="M23.258 20.828c0.604-0.242 0.906-0.53 0.906-0.866 0-0.341-0.302-0.633-0.906-0.874-0.604-0.236-1.334-0.354-2.19-0.354-0.851 0-1.581 0.118-2.19 0.354-0.604 0.242-0.906 0.533-0.906 0.874 0 0.336 0.302 0.625 0.906 0.866 0.609 0.236 1.339 0.354 2.19 0.354 0.856 0 1.586-0.118 2.19-0.354z"></path>
<path fill="#fa5058" style="fill: var(--color6, #fa5058)" d="M15.932 21.592c-0.851 0-1.578 0.121-2.182 0.362-0.604 0.236-0.906 0.525-0.906 0.866 0 0.336 0.302 0.622 0.906 0.859 0.604 0.242 1.331 0.362 2.182 0.362 0.856 0 1.586-0.121 2.19-0.362 0.604-0.236 0.906-0.523 0.906-0.859 0-0.341-0.302-0.63-0.906-0.866-0.604-0.242-1.334-0.362-2.19-0.362z"></path>
<path fill="#fa5058" style="fill: var(--color6, #fa5058)" d="M12.836 21.592v1.197h6.192v-1.197h-6.192z"></path>
<path fill="#fabe00" style="fill: var(--color7, #fabe00)" d="M13.742 22.451c0.604 0.236 1.334 0.354 2.19 0.354s1.586-0.118 2.19-0.354c0.604-0.242 0.906-0.53 0.906-0.866 0-0.341-0.302-0.63-0.906-0.866s-1.334-0.355-2.19-0.355-1.586 0.118-2.19 0.355c-0.604 0.236-0.906 0.525-0.906 0.866 0 0.336 0.302 0.625 0.906 0.866z"></path>
<path fill="#fa5058" style="fill: var(--color6, #fa5058)" d="M13.782 18.937c0 0.336 0.302 0.622 0.906 0.859s1.331 0.355 2.182 0.355c0.856 0 1.586-0.118 2.19-0.355s0.906-0.523 0.906-0.859c0-0.341-0.302-0.628-0.906-0.859-0.604-0.242-1.334-0.362-2.19-0.362-0.851 0-1.578 0.121-2.182 0.362-0.604 0.231-0.906 0.517-0.906 0.859z"></path>
<path fill="#fa5058" style="fill: var(--color6, #fa5058)" d="M13.774 18.906h6.192v-1.189h-6.192v1.189z"></path>
<path fill="#fabe00" style="fill: var(--color7, #fabe00)" d="M13.774 17.692c0 0.341 0.302 0.633 0.906 0.874s1.334 0.362 2.19 0.362 1.586-0.121 2.19-0.362c0.604-0.242 0.906-0.533 0.906-0.874 0-0.336-0.302-0.622-0.906-0.859-0.604-0.242-1.334-0.362-2.19-0.362s-1.586 0.121-2.19 0.362c-0.604 0.236-0.906 0.523-0.906 0.859z"></path>
<path fill="#fa5058" style="fill: var(--color6, #fa5058)" d="M12.301 18.693c0.168 0.294 0.57 0.399 1.205 0.315 0.646-0.084 1.339-0.331 2.080-0.741 0.751-0.42 1.334-0.88 1.749-1.378s0.538-0.898 0.37-1.197c-0.163-0.294-0.565-0.399-1.205-0.315-0.646 0.084-1.342 0.334-2.088 0.748s-1.326 0.872-1.741 1.371c-0.41 0.499-0.533 0.898-0.37 1.197z"></path>
<path fill="#fa5058" style="fill: var(--color6, #fa5058)" d="M11.702 17.622l0.583 1.048 5.412-2.993-0.583-1.048-5.412 2.993z"></path>
<path fill="#fabe00" style="fill: var(--color7, #fabe00)" d="M15.901 14.289c-0.646 0.084-1.342 0.336-2.088 0.756-0.751 0.41-1.331 0.867-1.741 1.371-0.415 0.504-0.541 0.903-0.378 1.197s0.57 0.402 1.221 0.323c0.641-0.084 1.334-0.331 2.080-0.741 0.751-0.415 1.334-0.877 1.749-1.386 0.404-0.499 0.525-0.895 0.362-1.19-0.163-0.299-0.565-0.41-1.205-0.331z"></path>
<path fill="#fa5058" style="fill: var(--color6, #fa5058)" d="M21.509 20.095c0.609 0.236 1.024 0.228 1.245-0.024 0.236-0.247 0.213-0.659-0.071-1.237-0.284-0.583-0.74-1.169-1.371-1.757-0.62-0.578-1.234-0.985-1.843-1.221-0.604-0.236-1.021-0.228-1.252 0.024-0.226 0.257-0.197 0.672 0.087 1.245 0.278 0.583 0.73 1.166 1.355 1.749 0.63 0.572 1.247 0.979 1.851 1.221z"></path>
<path fill="#fa5058" style="fill: var(--color6, #fa5058)" d="M22.77 20.056l0.819-0.874-4.545-4.199-0.803 0.874 4.53 4.199z"></path>
<path fill="#fabe00" style="fill: var(--color7, #fabe00)" d="M20.304 14.951c-0.604-0.236-1.021-0.231-1.253 0.016s-0.207 0.67 0.071 1.268c0.284 0.572 0.74 1.153 1.371 1.741 0.62 0.583 1.237 0.99 1.851 1.221 0.604 0.231 1.021 0.223 1.253-0.024 0.231-0.252 0.207-0.667-0.071-1.245-0.284-0.588-0.74-1.171-1.371-1.749-0.62-0.583-1.237-0.993-1.851-1.229z"></path>
<path fill="#450064" style="fill: var(--color9, #450064)" d="M9.591 20.828c-0.378-0.2-0.79-0.234-1.237-0.102l-6.499 1.898c-0.226 0.068-0.344 0.144-0.355 0.228h-0.008v1.686h0.008c-0.021 0.089 0.063 0.181 0.252 0.276l7.799 4.222c0.378 0.205 0.79 0.242 1.237 0.11l6.491-1.898c0.226-0.068 0.349-0.144 0.37-0.228v-1.686c0.010-0.084-0.076-0.178-0.26-0.284l-7.799-4.222z"></path>
<path fill="#450064" style="fill: var(--color9, #450064)" d="M9.591 20.828c-0.378-0.2-0.79-0.234-1.237-0.102l-6.499 1.898c-0.446 0.131-0.481 0.299-0.102 0.504l7.799 4.214c0.378 0.21 0.79 0.249 1.237 0.118l6.491-1.906c0.446-0.131 0.483-0.299 0.11-0.504l-7.799-4.222z"></path>
<path fill="#ccc" style="fill: var(--color10, #ccc)" d="M11.19 21.694l-1.552-0.835-7.838 2.292 1.552 0.843 7.838-2.3z"></path>
<path fill="#fff" style="fill: var(--color2, #fff)" d="M11.694 25.672l-0.748 0.221c-0.22 0.068-0.236 0.15-0.047 0.244l0.622 0.339c0.184 0.105 0.386 0.126 0.607 0.063l0.748-0.221c0.221-0.068 0.236-0.152 0.047-0.252l-0.614-0.339c-0.189-0.1-0.394-0.118-0.614-0.055z"></path>
<path fill="#fff" style="fill: var(--color2, #fff)" d="M9.929 26.192l-0.74 0.213c-0.226 0.068-0.244 0.152-0.055 0.252l0.622 0.339c0.189 0.1 0.397 0.118 0.622 0.055l0.74-0.221c0.226-0.063 0.244-0.147 0.055-0.252l-0.622-0.339c-0.189-0.1-0.397-0.116-0.622-0.047z"></path>
<path fill="#fabe00" style="fill: var(--color7, #fabe00)" d="M12.962 24.317l0.63 0.339c0.026 0.016 0.055 0.029 0.087 0.039 0.026 0.021 0.055 0.039 0.087 0.055l0.622 0.339c0.005 0 0.010 0.003 0.016 0.008s0.013 0.008 0.024 0.008l0.622 0.339c0.189 0.105 0.394 0.123 0.614 0.055l0.74-0.221c0.226-0.063 0.247-0.147 0.063-0.252l-0.622-0.339c-0.011 0-0.018-0.003-0.024-0.008s-0.013-0.008-0.024-0.008l-0.614-0.339c-0.037-0.016-0.073-0.032-0.11-0.047-0.016-0.011-0.039-0.026-0.071-0.047l-0.622-0.339c-0.189-0.105-0.397-0.123-0.622-0.055l-0.74 0.221c-0.226 0.063-0.244 0.147-0.055 0.252z"></path>
<path fill="#fff" style="fill: var(--color2, #fff)" d="M12.246 23.026l-0.741 0.221c-0.226 0.063-0.244 0.147-0.055 0.252l0.622 0.339c0.189 0.1 0.396 0.116 0.622 0.047l0.741-0.213c0.226-0.068 0.244-0.152 0.055-0.252l-0.63-0.339c-0.184-0.1-0.389-0.118-0.614-0.055z"></path>
<path fill="#fff" style="fill: var(--color2, #fff)" d="M10.773 22.23l-0.74 0.221c-0.226 0.063-0.244 0.147-0.055 0.252l0.622 0.339c0.189 0.1 0.396 0.116 0.622 0.047l0.741-0.221c0.226-0.063 0.244-0.144 0.055-0.244l-0.63-0.339c-0.184-0.1-0.389-0.118-0.614-0.055z"></path>
<path fill="#fff" style="fill: var(--color2, #fff)" d="M13.459 25.152l-0.733 0.221c-0.226 0.063-0.247 0.144-0.063 0.244l0.622 0.339c0.189 0.105 0.396 0.123 0.622 0.055l0.741-0.213c0.226-0.068 0.244-0.155 0.055-0.26l-0.622-0.331c-0.189-0.1-0.396-0.118-0.622-0.055z"></path>
<path fill="#fff" style="fill: var(--color2, #fff)" d="M11.978 24.349l-0.74 0.221c-0.226 0.068-0.244 0.15-0.055 0.244l0.614 0.339c0.194 0.105 0.404 0.123 0.63 0.055l0.74-0.213c0.226-0.068 0.242-0.155 0.047-0.26l-0.622-0.331c-0.184-0.1-0.389-0.118-0.614-0.055z"></path>
<path fill="#fff" style="fill: var(--color2, #fff)" d="M10.497 23.545l-0.741 0.221c-0.226 0.068-0.244 0.152-0.055 0.252l0.622 0.331c0.184 0.105 0.389 0.123 0.614 0.055l0.741-0.213c0.226-0.068 0.244-0.155 0.055-0.26l-0.614-0.331c-0.189-0.1-0.396-0.118-0.622-0.055z"></path>
<path fill="#fabe00" style="fill: var(--color7, #fabe00)" d="M9.008 22.742l-0.741 0.221c-0.226 0.068-0.244 0.152-0.055 0.252l0.63 0.339c0.184 0.1 0.389 0.116 0.614 0.047l0.741-0.213c0.226-0.068 0.244-0.152 0.055-0.252l-0.622-0.339c-0.189-0.1-0.396-0.118-0.622-0.055z"></path>
<path fill="#fff" style="fill: var(--color2, #fff)" d="M10.221 24.869l-0.748 0.213c-0.226 0.068-0.244 0.152-0.055 0.252l0.622 0.339c0.189 0.1 0.396 0.118 0.622 0.055l0.748-0.221c0.221-0.068 0.236-0.152 0.047-0.252l-0.622-0.339c-0.189-0.1-0.394-0.116-0.614-0.047z"></path>
<path fill="#fff" style="fill: var(--color2, #fff)" d="M8.74 24.065l-0.748 0.213c-0.226 0.068-0.244 0.155-0.055 0.26l0.622 0.331c0.189 0.1 0.396 0.118 0.622 0.055l0.74-0.221c0.221-0.068 0.239-0.152 0.055-0.252l-0.622-0.331c-0.189-0.105-0.394-0.123-0.614-0.055z"></path>
<path fill="#fff" style="fill: var(--color2, #fff)" d="M8.456 25.381l-0.74 0.221c-0.221 0.063-0.239 0.144-0.055 0.244l0.622 0.339c0.194 0.105 0.404 0.123 0.63 0.055l0.74-0.221c0.221-0.063 0.236-0.147 0.047-0.252l-0.622-0.339c-0.189-0.1-0.396-0.116-0.622-0.047z"></path>
<path fill="#fff" style="fill: var(--color2, #fff)" d="M6.984 24.577l-0.74 0.221c-0.226 0.063-0.247 0.147-0.063 0.252l0.622 0.331c0.189 0.105 0.397 0.123 0.622 0.055l0.74-0.221c0.226-0.063 0.244-0.147 0.055-0.252l-0.622-0.331c-0.189-0.105-0.394-0.123-0.614-0.055z"></path>
<path fill="#fa5058" style="fill: var(--color6, #fa5058)" d="M7.866 23.317c-0.189-0.105-0.394-0.123-0.614-0.055l-2.497 0.733c-0.226 0.063-0.244 0.147-0.055 0.252l0.622 0.339c0.189 0.1 0.396 0.116 0.622 0.047l2.505-0.733c0.221-0.068 0.236-0.15 0.047-0.244l-0.63-0.339z"></path>
<path fill="#fa5058" style="fill: var(--color6, #fa5058)" d="M20.328 28.595c0.662 0.263 1.46 0.394 2.395 0.394s1.733-0.131 2.395-0.394c0.662-0.257 0.993-0.572 0.993-0.945 0-0.368-0.331-0.68-0.993-0.937-0.662-0.268-1.46-0.402-2.395-0.402s-1.733 0.134-2.395 0.402c-0.662 0.257-0.993 0.57-0.993 0.937 0 0.373 0.331 0.688 0.993 0.945z"></path>
<path fill="#fa5058" style="fill: var(--color6, #fa5058)" d="M19.328 26.31v1.308h6.782v-1.308h-6.782z"></path>
<path fill="#fabe00" style="fill: var(--color7, #fabe00)" d="M20.32 27.24c0.662 0.268 1.463 0.402 2.403 0.402 0.935 0 1.733-0.134 2.395-0.402 0.662-0.263 0.993-0.575 0.993-0.937 0-0.378-0.331-0.696-0.993-0.953s-1.46-0.386-2.395-0.386c-0.94 0-1.741 0.129-2.403 0.386s-0.993 0.575-0.993 0.953c0 0.362 0.331 0.675 0.993 0.937z"></path>
</symbol>
<symbol id="icon-reach-earning-icon" viewBox="0 0 27 32">
<path fill="#bac3c3" style="fill: var(--color5, #bac3c3)" d="M3.187 20.813h17.626v-4.8h-17.626v4.8zM6.413 22.387v4.8h17.587v-4.8h-17.587zM4.8 14.4h17.587v-4.8h-15.974v-1.613h17.587v-4.8h-17.587v6.413h-1.613v4.8zM24 20.813h3.187v9.6h-24v-8.026h-3.187v-7.987h1.613v-6.413h1.574v-7.987h24v9.6h-1.574v6.413h-1.613v4.8z"></path>
</symbol>
<symbol id="icon-support" viewBox="0 0 32 32">
<path fill="#02e0d1" style="fill: var(--color11, #02e0d1)" d="M31.476 16c0-4.27-1.512-7.917-4.535-10.941s-6.671-4.535-10.941-4.535-7.924 1.512-10.962 4.535c-3.009 3.024-4.514 6.671-4.514 10.941s1.505 7.917 4.514 10.941c3.038 3.024 6.692 4.535 10.962 4.535s7.917-1.512 10.941-4.535c3.024-3.024 4.535-6.671 4.535-10.941z"></path>
<path fill="#9c006d" style="fill: var(--color12, #9c006d)" d="M12.346 25.479c-2.714 0-4.627 0.953-5.739 2.859 2.705 2.092 5.836 3.138 9.393 3.138 3.574 0 6.691-1.053 9.35-3.16-1.102-1.892-3.008-2.837-5.718-2.837h-7.287z"></path>
<path fill="#fff" style="fill: var(--color2, #fff)" d="M12.626 25.522v3.676h6.728v-3.676h-6.728z"></path>
<path fill="#f96" style="fill: var(--color13, #f96)" d="M12.604 25.608l3.568 3.568 3.203-3.59v-0.731h-6.771v0.752z"></path>
<path fill="#df7e4e" style="fill: var(--color14, #df7e4e)" d="M19.375 21.352c0-0.946-0.33-1.741-0.989-2.386-0.659-0.673-1.462-1.010-2.407-1.010-0.931 0-1.727 0.337-2.386 1.010-0.659 0.645-0.989 1.44-0.989 2.386v3.504h6.771v-3.504z"></path>
<path fill="#fa5058" style="fill: var(--color6, #fa5058)" d="M19.719 9.68c1.046-1.046 1.569-2.3 1.569-3.762 0-1.476-0.523-2.73-1.569-3.762-1.032-1.046-2.278-1.569-3.74-1.569s-2.716 0.523-3.762 1.569c-1.017 1.032-1.526 2.286-1.526 3.762 0 1.462 0.509 2.715 1.526 3.762 1.046 1.032 2.3 1.548 3.762 1.548s2.708-0.516 3.74-1.548z"></path>
<path fill="#f96" style="fill: var(--color13, #f96)" d="M23.695 14.689c-0.33-0.33-0.745-0.494-1.247-0.494h-12.918c-0.502 0-0.917 0.165-1.247 0.494-0.344 0.344-0.516 0.759-0.516 1.247s0.172 0.903 0.516 1.247c0.33 0.344 0.745 0.516 1.247 0.516h12.918c0.502 0 0.917-0.172 1.247-0.516 0.344-0.344 0.516-0.759 0.516-1.247s-0.172-0.903-0.516-1.247z"></path>
<path fill="#9c006d" style="fill: var(--color12, #9c006d)" d="M10.497 18.193c0.387-0.559 0.58-1.232 0.58-2.021 0-0.802-0.193-1.483-0.58-2.042s-0.86-0.838-1.419-0.838c-0.545 0-1.017 0.279-1.419 0.838-0.373 0.559-0.559 1.24-0.559 2.042 0 0.788 0.186 1.462 0.559 2.021 0.401 0.573 0.874 0.86 1.419 0.86 0.559 0 1.032-0.287 1.419-0.86z"></path>
<path fill="#9c006d" style="fill: var(--color12, #9c006d)" d="M24.276 18.193c0.401-0.559 0.602-1.24 0.602-2.042 0-0.788-0.201-1.469-0.602-2.042-0.387-0.544-0.853-0.817-1.397-0.817-0.559 0-1.032 0.272-1.419 0.817-0.387 0.573-0.58 1.254-0.58 2.042 0 0.802 0.193 1.483 0.58 2.042s0.86 0.838 1.419 0.838c0.545 0 1.010-0.279 1.397-0.838z"></path>
<path fill="#f96" style="fill: var(--color13, #f96)" d="M21.911 12.109c0-1.634-0.588-3.038-1.763-4.213-1.146-1.132-2.536-1.698-4.17-1.698-1.619 0-3.009 0.566-4.17 1.698-1.161 1.175-1.741 2.579-1.741 4.213v5.245c0 1.619 0.58 3.016 1.741 4.191 1.161 1.161 2.551 1.741 4.17 1.741 1.634 0 3.024-0.58 4.17-1.741 1.175-1.175 1.763-2.572 1.763-4.191v-5.245z"></path>
<path fill="#fa5058" style="fill: var(--color6, #fa5058)" d="M22.663 11.765c0-1.834-0.652-3.41-1.956-4.729-1.304-1.304-2.88-1.956-4.729-1.956-1.82 0-3.389 0.652-4.707 1.956-1.318 1.318-1.978 2.895-1.978 4.729l0.043 2.386 0.752 0.086c0.788-2.565 2.056-4.299 3.805-5.202 1.863 2.737 4.765 4.521 8.705 5.352l0.064-2.622z"></path>
<path fill="#9c006d" style="fill: var(--color12, #9c006d)" d="M20.127 9.724c1.162 1.155 1.742 2.552 1.741 4.191v3.031c0.002 0.177 0.066 0.327 0.193 0.451 0.124 0.128 0.275 0.192 0.451 0.193 0.177-0.001 0.327-0.066 0.451-0.193 0.127-0.124 0.192-0.275 0.193-0.451v-3.031c-0.001-2.001-0.71-3.706-2.128-5.116-1.401-1.361-3.084-2.042-5.051-2.042-1.983-0-3.667 0.681-5.051 2.042v0.021c-1.402 1.399-2.104 3.097-2.107 5.094v3.031c0.002 0.177 0.066 0.327 0.193 0.451 0.124 0.128 0.275 0.192 0.451 0.193 0.177-0.001 0.327-0.066 0.451-0.193 0.127-0.124 0.192-0.275 0.193-0.451v-3.031c-0.002-1.643 0.571-3.040 1.72-4.191 1.137-1.118 2.52-1.677 4.149-1.677 1.616 0 2.998 0.559 4.149 1.677z"></path>
<path fill="#fa5058" style="fill: var(--color6, #fa5058)" d="M17.246 19.052c0.33-0.244 0.494-0.53 0.494-0.86 0-0.358-0.165-0.652-0.494-0.881-0.358-0.229-0.781-0.344-1.268-0.344s-0.896 0.115-1.225 0.344c-0.344 0.229-0.516 0.523-0.516 0.881 0 0.33 0.172 0.616 0.516 0.86 0.33 0.215 0.738 0.323 1.225 0.323s0.91-0.108 1.268-0.323z"></path>
<path fill="#440063" style="fill: var(--color15, #440063)" d="M8.477 17.655c-0.127 0.124-0.192 0.275-0.193 0.451 0.003 0.952 0.333 1.755 0.989 2.407 0.67 0.673 1.472 1.010 2.407 1.010h2.493c0.177-0.002 0.327-0.066 0.451-0.193 0.127-0.124 0.192-0.275 0.193-0.451-0.002-0.177-0.066-0.327-0.193-0.451-0.124-0.128-0.275-0.192-0.451-0.193h-2.493c-0.584 0.001-1.085-0.207-1.505-0.623-0.405-0.408-0.605-0.909-0.602-1.505-0.002-0.177-0.066-0.327-0.193-0.451-0.124-0.127-0.275-0.192-0.451-0.193-0.177 0.002-0.327 0.066-0.451 0.193z"></path>
</symbol>
</defs>
</svg>
